<svg width="16" height="16" viewBox="0 0 16 16" fill="none" xmlns="http://www.w3.org/2000/svg">
<g id="filter 1">
<path id="Vector" d="M1 3.49953H1.071C1.18014 3.92832 1.42903 4.30853 1.77836 4.58009C2.12769 4.85164 2.55754 4.99906 3 4.99906C3.44246 4.99906 3.87231 4.85164 4.22164 4.58009C4.57097 4.30853 4.81986 3.92832 4.929 3.49953H15C15.1326 3.49953 15.2598 3.44685 15.3536 3.35309C15.4473 3.25932 15.5 3.13214 15.5 2.99953C15.5 2.86692 15.4473 2.73975 15.3536 2.64598C15.2598 2.55221 15.1326 2.49953 15 2.49953H4.929C4.81986 2.07074 4.57097 1.69053 4.22164 1.41898C3.87231 1.14742 3.44246 1 3 1C2.55754 1 2.12769 1.14742 1.77836 1.41898C1.42903 1.69053 1.18014 2.07074 1.071 2.49953H1C0.867392 2.49953 0.740215 2.55221 0.646447 2.64598C0.552678 2.73975 0.5 2.86692 0.5 2.99953C0.5 3.13214 0.552678 3.25932 0.646447 3.35309C0.740215 3.44685 0.867392 3.49953 1 3.49953ZM3 1.99953C3.19778 1.99953 3.39112 2.05818 3.55557 2.16806C3.72002 2.27794 3.84819 2.43412 3.92388 2.61685C3.99957 2.79957 4.01937 3.00064 3.98079 3.19462C3.9422 3.3886 3.84696 3.56679 3.70711 3.70664C3.56725 3.84649 3.38907 3.94173 3.19509 3.98032C3.00111 4.0189 2.80004 3.9991 2.61732 3.92341C2.43459 3.84772 2.27841 3.71955 2.16853 3.5551C2.05865 3.39065 2 3.19731 2 2.99953C2 2.73432 2.10536 2.47996 2.29289 2.29243C2.48043 2.10489 2.73478 1.99953 3 1.99953ZM15 7.49953H14.929C14.8199 7.07074 14.571 6.69053 14.2216 6.41898C13.8723 6.14742 13.4425 6 13 6C12.5575 6 12.1277 6.14742 11.7784 6.41898C11.429 6.69053 11.1801 7.07074 11.071 7.49953H1C0.867392 7.49953 0.740215 7.55221 0.646447 7.64598C0.552678 7.73975 0.5 7.86692 0.5 7.99953C0.5 8.13214 0.552678 8.25932 0.646447 8.35309C0.740215 8.44685 0.867392 8.49953 1 8.49953H11.071C11.1801 8.92832 11.429 9.30853 11.7784 9.58009C12.1277 9.85164 12.5575 9.99907 13 9.99907C13.4425 9.99907 13.8723 9.85164 14.2216 9.58009C14.571 9.30853 14.8199 8.92832 14.929 8.49953H15C15.1326 8.49953 15.2598 8.44685 15.3536 8.35309C15.4473 8.25932 15.5 8.13214 15.5 7.99953C15.5 7.86692 15.4473 7.73975 15.3536 7.64598C15.2598 7.55221 15.1326 7.49953 15 7.49953ZM13 8.99953C12.8022 8.99953 12.6089 8.94088 12.4444 8.831C12.28 8.72112 12.1518 8.56494 12.0761 8.38222C12.0004 8.19949 11.9806 7.99842 12.0192 7.80444C12.0578 7.61046 12.153 7.43228 12.2929 7.29243C12.4327 7.15257 12.6109 7.05733 12.8049 7.01875C12.9989 6.98016 13.2 6.99997 13.3827 7.07565C13.5654 7.15134 13.7216 7.27951 13.8315 7.44396C13.9414 7.60841 14 7.80175 14 7.99953C14 8.26475 13.8946 8.5191 13.7071 8.70664C13.5196 8.89418 13.2652 8.99953 13 8.99953ZM15 12.4995H9.929C9.81986 12.0707 9.57097 11.6905 9.22164 11.419C8.87231 11.1474 8.44246 11 8 11C7.55754 11 7.12769 11.1474 6.77836 11.419C6.42903 11.6905 6.18014 12.0707 6.071 12.4995H1C0.867392 12.4995 0.740215 12.5522 0.646447 12.646C0.552678 12.7397 0.5 12.8669 0.5 12.9995C0.5 13.1321 0.552678 13.2593 0.646447 13.3531C0.740215 13.4469 0.867392 13.4995 1 13.4995H6.071C6.18014 13.9283 6.42903 14.3085 6.77836 14.5801C7.12769 14.8516 7.55754 14.9991 8 14.9991C8.44246 14.9991 8.87231 14.8516 9.22164 14.5801C9.57097 14.3085 9.81986 13.9283 9.929 13.4995H15C15.1326 13.4995 15.2598 13.4469 15.3536 13.3531C15.4473 13.2593 15.5 13.1321 15.5 12.9995C15.5 12.8669 15.4473 12.7397 15.3536 12.646C15.2598 12.5522 15.1326 12.4995 15 12.4995ZM8 13.9995C7.80222 13.9995 7.60888 13.9409 7.44443 13.831C7.27998 13.7211 7.15181 13.5649 7.07612 13.3822C7.00043 13.1995 6.98063 12.9984 7.01921 12.8044C7.0578 12.6105 7.15304 12.4323 7.29289 12.2924C7.43275 12.1526 7.61093 12.0573 7.80491 12.0187C7.99889 11.9802 8.19996 12 8.38268 12.0757C8.56541 12.1513 8.72159 12.2795 8.83147 12.444C8.94135 12.6084 9 12.8018 9 12.9995C9 13.2647 8.89464 13.5191 8.70711 13.7066C8.51957 13.8942 8.26522 13.9995 8 13.9995Z" fill="#141414"/>
</g>
</svg>
